<svg width="512" height="512" viewBox="0 0 512 512" fill="none" xmlns="http://www.w3.org/2000/svg">
<path fill-rule="evenodd" clip-rule="evenodd" d="M364.686 32L56 32C42.7451 32 32 42.7452 32 56L32 456C32 469.255 42.7452 480 56 480L456 480C469.255 480 480 469.255 480 456L480 147.314C480 140.949 477.471 134.844 472.971 130.343L381.657 39.0294C377.156 34.5286 371.051 32 364.686 32ZM64 448L64 64L160 64V136C160 149.255 170.745 160 184 160L328 160C341.255 160 352 149.255 352 136V64H361.373L448 150.627L448 448H400V328C400 314.745 389.255 304 376 304L136 304C122.745 304 112 314.745 112 328V448H64ZM144 448L368 448V336L144 336V448ZM320 64V128L192 128V64L320 64ZM192 376C183.163 376 176 383.163 176 392C176 400.837 183.163 408 192 408L320 408C328.837 408 336 400.837 336 392C336 383.163 328.837 376 320 376L192 376Z" fill="#ffffff" id="id_101"></path>
</svg>